<?xml version="1.0" encoding="UTF-8" standalone="no"?>
<!-- Created with Inkscape (http://www.inkscape.org/) -->

<svg
   width="254.68793mm"
   height="42.280441mm"
   viewBox="0 0 254.68793 42.280441"
   version="1.1"
   id="svg5"
   inkscape:version="1.2.2 (732a01da63, 2022-12-09)"
   sodipodi:docname="logo.svg"
   xmlns:inkscape="http://www.inkscape.org/namespaces/inkscape"
   xmlns:sodipodi="http://sodipodi.sourceforge.net/DTD/sodipodi-0.dtd"
   xmlns="http://www.w3.org/2000/svg"
   xmlns:svg="http://www.w3.org/2000/svg">
  <sodipodi:namedview
     id="namedview7"
     pagecolor="#ffffff"
     bordercolor="#000000"
     borderopacity="0.25"
     inkscape:showpageshadow="2"
     inkscape:pageopacity="0.0"
     inkscape:pagecheckerboard="0"
     inkscape:deskcolor="#d1d1d1"
     inkscape:document-units="mm"
     showgrid="false"
     inkscape:zoom="0.84096521"
     inkscape:cx="384.08248"
     inkscape:cy="159.34072"
     inkscape:window-width="2256"
     inkscape:window-height="1398"
     inkscape:window-x="-11"
     inkscape:window-y="-11"
     inkscape:window-maximized="1"
     inkscape:current-layer="layer1" />
  <defs
     id="defs2" />
  <g
     inkscape:label="Layer 1"
     inkscape:groupmode="layer"
     id="layer1"
     transform="translate(21.479143,-41.828565)">
    <g
       aria-label="What2Watch"
       id="text236"
       style="font-size:52.9167px;font-family:'Offaly DEMO';-inkscape-font-specification:'Offaly DEMO';text-align:center;text-anchor:middle;fill:#ffe400;stroke:#000000;stroke-width:0;stroke-linejoin:round">
      <path
         d="M -6.5566339,50.506904 -0.20663009,74.160668 6.090457,50.506904 h 5.238753 l -8.8900052,33.49627 h -5.3445865 l -2.1695847,-8.202088 -2.1695846,8.202088 h -5.29167 l -8.942922,-33.49627 h 5.29167 l 6.2970871,23.653764 2.1695846,-8.255005 -4.0745857,-15.398759 h 5.2387531 v 0 z"
         style="fill:#1f2937;stroke:none;stroke-opacity:0"
         id="path297" />
      <path
         d="M 33.289606,84.003174 H 27.997937 V 60.402326 q 0,-2.116668 -1.270001,-3.545418 -1.270001,-1.481668 -3.386669,-1.481668 -2.063751,0 -3.333752,1.481668 -1.270001,1.42875 -1.270001,3.545418 V 84.003174 H 13.445845 V 41.828565 h 5.291669 v 9.789589 q 1.005418,-0.529167 2.169585,-0.846667 1.164167,-0.370417 2.434168,-0.370417 2.116668,0 3.915836,0.793751 1.852084,0.79375 3.175002,2.169584 1.375834,1.322918 2.116668,3.175002 0.740833,1.799168 0.740833,3.862919 z"
         style="fill:#1f2937;stroke:none;stroke-opacity:0"
         id="path299" />
      <path
         d="m 70.172575,84.003174 h -5.027086 l -0.264584,-4.762503 q -2.328335,2.222501 -5.397503,3.545419 -3.016252,1.322917 -6.508754,1.322917 -3.545419,0 -6.667504,-1.322917 -3.122085,-1.322918 -5.45042,-3.598336 -2.328335,-2.328334 -3.704169,-5.397503 -1.322917,-3.069168 -1.322917,-6.508754 0,-3.492502 1.322917,-6.56167 1.375834,-3.069169 3.704169,-5.344587 2.328335,-2.328335 5.45042,-3.651252 3.122085,-1.322918 6.667504,-1.322918 3.492502,0 6.508754,1.322918 3.069168,1.322917 5.397503,3.545419 v -4.762503 h 5.29167 z M 52.974648,55.37524 q -2.487085,0 -4.65667,0.952501 -2.116667,0.899583 -3.757085,2.540001 -1.587501,1.587501 -2.540002,3.757086 -0.899584,2.169584 -0.899584,4.656669 0,2.487085 0.899584,4.65667 0.952501,2.116668 2.540002,3.757085 1.640418,1.640418 3.757085,2.592918 2.169585,0.899584 4.65667,0.899584 2.487085,0 4.656669,-0.899584 2.169585,-0.9525 3.757086,-2.592918 1.640418,-1.640417 2.540001,-3.757085 0.952501,-2.169585 0.952501,-4.65667 0,-2.487085 -0.952501,-4.656669 -0.899583,-2.169585 -2.540001,-3.757086 -1.587501,-1.640418 -3.757086,-2.540001 -2.169584,-0.952501 -4.656669,-0.952501 z"
         style="fill:#1f2937;stroke:none;stroke-opacity:0"
         id="path301" />
      <path
         d="m 74.987965,55.481073 h -2.275418 v -4.974169 h 2.275418 v -5.238753 h 5.238753 v 5.238753 h 3.545419 v 4.974169 h -3.545419 v 20.637513 q 0,1.693334 0.846667,2.328334 0.846668,0.582084 2.063752,0.582084 h 0.635 v 4.97417 h -0.635 q -3.862919,0 -6.032504,-2.063751 -2.116668,-2.063752 -2.116668,-5.820837 z"
         style="fill:#1f2937;stroke:none;stroke-opacity:0"
         id="path303" />
      <path
         d="m 103.9863,59.714409 q 0,2.645835 -0.89959,4.603753 -0.89958,1.957918 -2.27542,3.545419 -1.375831,1.534584 -2.963332,2.804585 -1.534584,1.270001 -2.910418,2.540001 -1.375834,1.270001 -2.275418,2.698752 -0.899584,1.375834 -0.899584,3.122085 H 103.9863 v 4.97417 H 86.153368 v -4.709586 q 0,-2.698752 0.899584,-4.65667 0.9525,-1.957918 2.328335,-3.439585 1.42875,-1.534584 3.016251,-2.751669 1.640418,-1.217084 3.016252,-2.487084 1.428751,-1.322918 2.328335,-2.751669 0.952501,-1.481667 0.952501,-3.492502 0,-1.852084 -1.375835,-3.069168 -1.375834,-1.270001 -3.227918,-1.270001 -1.270001,0 -2.487085,0.687917 -1.164167,0.635 -1.746251,1.746251 l -3.704169,-3.704169 q 1.270001,-1.693334 3.386669,-2.698751 2.169584,-1.005418 4.550836,-1.005418 2.010834,0 3.810002,0.740834 1.799168,0.687917 3.122085,1.957918 1.37583,1.217084 2.16958,2.910418 0.79376,1.693335 0.79376,3.704169 z"
         style="fill:#065f46"
         id="path305" />
      <path
         d="m 120.49631,50.506904 6.35,23.653764 6.29709,-23.653764 h 5.23875 l -8.89,33.49627 h -5.34459 l -2.16959,-8.202088 -2.16958,8.202088 h -5.29167 l -8.94292,-33.49627 h 5.29167 l 6.29708,23.653764 2.16959,-8.255005 -4.07459,-15.398759 h 5.23876 v 0 z"
         style="fill:#1f2937;stroke:none;stroke-opacity:0"
         id="path307" />
      <path
         d="m 171.93131,84.003174 h -5.02709 l -0.26458,-4.762503 q -2.32834,2.222501 -5.39751,3.545419 -3.01625,1.322917 -6.50875,1.322917 -3.54542,0 -6.6675,-1.322917 -3.12209,-1.322918 -5.45042,-3.598336 -2.32834,-2.328334 -3.70417,-5.397503 -1.32292,-3.069168 -1.32292,-6.508754 0,-3.492502 1.32292,-6.56167 1.37583,-3.069169 3.70417,-5.344587 2.32833,-2.328335 5.45042,-3.651252 3.12208,-1.322918 6.6675,-1.322918 3.4925,0 6.50875,1.322918 3.06917,1.322917 5.39751,3.545419 v -4.762503 h 5.29167 z M 154.73338,55.37524 q -2.48709,0 -4.65667,0.952501 -2.11667,0.899583 -3.75709,2.540001 -1.5875,1.587501 -2.54,3.757086 -0.89958,2.169584 -0.89958,4.656669 0,2.487085 0.89958,4.65667 0.9525,2.116668 2.54,3.757085 1.64042,1.640418 3.75709,2.592918 2.16958,0.899584 4.65667,0.899584 2.48708,0 4.65667,-0.899584 2.16958,-0.9525 3.75708,-2.592918 1.64042,-1.640417 2.54001,-3.757085 0.9525,-2.169585 0.9525,-4.65667 0,-2.487085 -0.9525,-4.656669 -0.89959,-2.169585 -2.54001,-3.757086 -1.5875,-1.640418 -3.75708,-2.540001 -2.16959,-0.952501 -4.65667,-0.952501 z"
         style="fill:#1f2937;stroke:none;stroke-opacity:0"
         id="path309" />
      <path
         d="m 176.74669,55.481073 h -2.27541 v -4.974169 h 2.27541 v -5.238753 h 5.23876 v 5.238753 h 3.54542 v 4.974169 h -3.54542 v 20.637513 q 0,1.693334 0.84666,2.328334 0.84667,0.582084 2.06375,0.582084 h 0.63501 v 4.97417 h -0.63501 q -3.86291,0 -6.0325,-2.063751 -2.11667,-2.063752 -2.11667,-5.820837 z"
         style="fill:#1f2937;stroke:none;stroke-opacity:0"
         id="path311" />
      <path
         d="m 202.57003,84.109007 q -3.54541,0 -6.6675,-1.322917 -3.12208,-1.322918 -5.45042,-3.598336 -2.32833,-2.328334 -3.70417,-5.397503 -1.32292,-3.069168 -1.32292,-6.508754 0,-3.492502 1.32292,-6.56167 1.37584,-3.069169 3.70417,-5.344587 2.32834,-2.328335 5.45042,-3.651252 3.12209,-1.322918 6.6675,-1.322918 2.38126,0 4.55084,0.635001 2.2225,0.582083 4.1275,1.640417 l -3.38667,3.915836 q -2.43416,-1.217084 -5.29167,-1.217084 -2.48708,0 -4.65667,0.952501 -2.11666,0.899583 -3.75708,2.540001 -1.5875,1.587501 -2.54,3.757086 -0.89959,2.169584 -0.89959,4.656669 0,2.487085 0.89959,4.65667 0.9525,2.116668 2.54,3.757085 1.64042,1.640418 3.75708,2.592918 2.16959,0.899584 4.65667,0.899584 1.42876,0 2.75167,-0.3175 1.32292,-0.370417 2.54,-0.9525 l 3.38667,3.915835 q -1.905,1.058334 -4.1275,1.693335 -2.16958,0.582083 -4.55084,0.582083 z"
         style="fill:#1f2937;stroke:none;stroke-opacity:0"
         id="path313" />
      <path
         d="m 233.20878,84.003174 h -5.29167 V 60.402326 q 0,-2.116668 -1.27,-3.545418 -1.27,-1.481668 -3.38667,-1.481668 -2.06375,0 -3.33375,1.481668 -1.27,1.42875 -1.27,3.545418 v 23.600848 h -5.29167 V 41.828565 h 5.29167 v 9.789589 q 1.00542,-0.529167 2.16958,-0.846667 1.16417,-0.370417 2.43417,-0.370417 2.11667,0 3.91584,0.793751 1.85208,0.79375 3.175,2.169584 1.37583,1.322918 2.11667,3.175002 0.74083,1.799168 0.74083,3.862919 z"
         style="fill:#1f2937;stroke:none;stroke-opacity:0"
         id="path315" />
    </g>
  </g>
</svg>
