<?xml version="1.0" encoding="UTF-8" standalone="no"?>
<svg
   data-name="Layer 1"
   width="510.85178"
   height="481.98526"
   viewBox="0 0 510.85178 481.98526"
   version="1.1"
   id="svg318"
   sodipodi:docname="swipe.svg"
   inkscape:version="1.2.2 (732a01da63, 2022-12-09)"
   xml:space="preserve"
   xmlns:inkscape="http://www.inkscape.org/namespaces/inkscape"
   xmlns:sodipodi="http://sodipodi.sourceforge.net/DTD/sodipodi-0.dtd"
   xmlns="http://www.w3.org/2000/svg"
   xmlns:svg="http://www.w3.org/2000/svg"><defs
     id="defs322" /><sodipodi:namedview
     id="namedview320"
     pagecolor="#ffffff"
     bordercolor="#000000"
     borderopacity="0.25"
     inkscape:showpageshadow="2"
     inkscape:pageopacity="0.0"
     inkscape:pagecheckerboard="0"
     inkscape:deskcolor="#d1d1d1"
     showgrid="false"
     inkscape:zoom="1.8461337"
     inkscape:cx="309.29504"
     inkscape:cy="265.41956"
     inkscape:window-width="2256"
     inkscape:window-height="1398"
     inkscape:window-x="-11"
     inkscape:window-y="-11"
     inkscape:window-maximized="1"
     inkscape:current-layer="svg318" /><rect
     style="fill:#ffffff;fill-opacity:1;stroke:#111827;stroke-width:5.15725;stroke-linejoin:round;stroke-dasharray:none;stroke-opacity:1"
     id="rect2781-6-3"
     width="283.72311"
     height="458.99249"
     x="97.765213"
     y="21.471464"
     ry="25.503021"
     transform="rotate(-3.0315148)" /><rect
     style="fill:#ffffff;fill-opacity:1;stroke:#111827;stroke-width:5.15725;stroke-linejoin:round;stroke-dasharray:none;stroke-opacity:1"
     id="rect2781-6"
     width="283.72311"
     height="458.99249"
     x="117.33328"
     y="-3.9289417"
     ry="25.503021"
     transform="rotate(3.5088676)" /><rect
     style="fill:#ffffff;fill-opacity:1;stroke:#111827;stroke-width:5.15725;stroke-linejoin:round;stroke-dasharray:none;stroke-opacity:1"
     id="rect2781"
     width="283.72311"
     height="458.99249"
     x="107.24387"
     y="20.414129"
     ry="25.503021" /><g
     id="g4725"
     transform="matrix(0.44099181,0,0,0.44099181,48.788469,-61.400655)"><path
       id="uuid-afa4718a-41ef-46ad-9f1b-fdedc1410b9c-1040"
       d="m 310.11944,745.78389 c 2.93,-3.93 4.87,-8.5 5.67,-13.33 l 32.6,-39.48 -19.24,-14.96 -31,41.66 c -4.34,2.26 -8.08,5.53 -10.9,9.54 -7.19,9.92 -7.91,21.68 -1.59,26.25 6.31,4.58 17.26,0.24 24.45,-9.68 z"
       fill="#ffb6b6" /><polygon
       points="223.72,237.97 245.27,261.1 347.26,139.3 306.48,112.05 "
       fill="#6c63ff"
       id="polygon3987"
       transform="translate(94.899438,449.79389)"
       style="fill:#064e3b;fill-opacity:1" /><path
       d="m 134.70947,742.35389 c 0,0.87 0.65143,1.57 1.46107,1.57 h 641.69667 c 0.80964,0 1.46107,-0.7 1.46107,-1.57 0,-0.87 -0.65143,-1.57 -1.46107,-1.57 H 136.17054 c -0.80964,0 -1.46107,0.7 -1.46107,1.57 z"
       fill="#3f3d56"
       id="path3989"
       style="fill:#111827;fill-opacity:1;stroke-width:0.964684" /><polygon
       points="313.29,62.48 318.63,90.22 277.66,104.05 273.11,72.7 "
       fill="#ffb6b6"
       id="polygon3991"
       transform="translate(94.899438,449.79389)" /><polygon
       points="194.08,474.34 188.78,438.85 156.47,439.91 161.24,484.41 "
       fill="#ffb6b6"
       id="polygon3993"
       transform="translate(94.899438,449.79389)" /><path
       d="m 367.37944,696.34389 c 0,0 -107.54,20.66 -120.25,51.92 -12.71,31.26 2.12,148.33 2.12,148.33 l 36.55,3.71 15.36,-134.56 c 0,0 93.24,-1.59 100.12,-12.71 6.88,-11.12 5.83,-51.39 5.83,-51.39 z"
       fill="#2f2e41"
       id="path3995"
       style="fill:#111827;fill-opacity:1" /><path
       d="m 251.79944,912.31389 v 0 l -21.3,21.16 c 0,0 -36.35,29.86 -13.04,28.27 23.31,-1.59 83.7,-15.89 83.17,-27.02 -0.53,-11.13 -10.07,-33.37 -10.07,-33.37 l -38.77,10.95 h 0.01 z"
       fill="#2f2e41"
       id="path3997"
       style="fill:#111827;fill-opacity:1" /><polygon
       points="329.96,466.9 309.46,437.44 280.97,452.73 304.99,490.49 "
       fill="#ffb6b6"
       id="polygon3999"
       transform="translate(94.899438,449.79389)" /><path
       d="m 394.02944,677.76389 c 0,0 -87.2,66.24 -84.73,99.89 2.48,33.65 67.72,131.98 67.72,131.98 l 34.4,-12.9 -45.94,-127.4 c 0,0 82.85,-42.8 84.08,-55.82 1.23,-13.02 -17.58,-48.63 -17.58,-48.63 l -37.96,12.88 z"
       fill="#2f2e41"
       id="path4001"
       style="fill:#111827;fill-opacity:1" /><path
       d="m 386.99944,920.08389 v 0 l -12.13,32.27 c 0,0 -17.59,41.55 2.59,29.78 20.18,-11.77 67.95,-51.38 62.54,-61.12 -5.41,-9.74 -23.83,-25.44 -23.83,-25.44 z"
       fill="#2f2e41"
       id="path4003"
       style="fill:#111827;fill-opacity:1" /><circle
       cx="386.63943"
       cy="499.61389"
       r="32.700001"
       fill="#ffb6b6"
       id="circle4005" /><path
       d="m 410.81944,524.71389 -40.79,30.2 -6.36,131.38 -15.36,14.83 52.97,51.92 c 0,0 58.27,-18.01 52.44,-45.56 l -5.83,-27.55 2.1,-30.74 c 3.08,-44.95 -10.92,-89.4 -39.19,-124.47 h 0.02 c 0,0 0,0 0,0 z"
       fill="#6c63ff"
       id="path4007"
       style="fill:#064e3b;fill-opacity:1" /><path
       d="m 410.15944,525.39389 -19.9,-0.66 c 0,0 5.16,-31.18 -7.14,-31.01 l -11.12,-5.29 c 0,0 -27.81,-18.74 -15.06,-26.6 12.76,-7.85 21.66,-14.91 28.95,-10.86 7.3,4.05 22.08,5.63 22.08,5.63 0,0 26.22,11.04 25.44,20.27 -0.78,9.23 -6.74,49.66 -23.26,48.51 h 0.01 z"
       fill="#2f2e41"
       id="path4009"
       style="fill:#111827;fill-opacity:1" /><path
       id="uuid-b608ab84-b9cd-47a8-808f-666f8f7d666f-1041"
       d="m 323.35944,747.89389 c 2.73,-4.07 4.45,-8.73 5.01,-13.59 l 30.62,-41.03 -19.95,-14 -28.91,43.13 c -4.23,2.47 -7.8,5.93 -10.42,10.06 -6.7,10.27 -6.83,22.04 -0.3,26.3 6.53,4.26 17.25,-0.61 23.95,-10.87 z"
       fill="#ffb6b6" /><polygon
       points="234.09,239.74 256.75,261.77 352.62,135.1 310.56,109.89 "
       fill="#6c63ff"
       id="polygon4012"
       transform="translate(94.899438,449.79389)"
       style="fill:#064e3b;fill-opacity:1" /><polygon
       points="541.22,417.82 539.26,334.35 566.48,329.07 575.46,415.07 "
       fill="#ffb6b6"
       id="polygon4014"
       transform="translate(94.899438,449.79389)" /><path
       d="m 670.76944,845.89389 v 0 l 27.6,11.82 c 0,0 44.8,14.35 22.55,21.47 -22.25,7.12 -83.66,16.1 -87.27,5.56 -3.61,-10.54 -2.95,-34.73 -2.95,-34.73 l 40.07,-4.11 v 0 z"
       fill="#2f2e41"
       id="path4016"
       style="fill:#111827;fill-opacity:1" /><path
       d="m 523.29944,668.96389 14.23,6.82 c 0,0 104.58,-5.87 111.68,13.53 7.1,19.41 20.83,135.37 20.83,135.37 l -36.92,2.37 -16.09,-78.57 -93.72,-79.52 h -0.01 c 0,0 0,0 0,0 z"
       fill="#2f2e41"
       id="path4018"
       style="fill:#111827;fill-opacity:1" /><path
       id="uuid-2fb5f450-2303-4fbd-97a7-1c64874c1514-1042"
       d="m 622.34944,692.42389 c -3.51,-3.42 -7.78,-5.95 -12.47,-7.38 l -34.84,-37.51 -17.37,17.1 37.21,36.21 c 1.67,4.6 4.42,8.74 8.02,12.06 8.89,8.44 20.45,10.69 25.82,5.04 5.37,-5.65 2.52,-17.08 -6.37,-25.51 v 0 z"
       fill="#ffb6b6" /><polygon
       points="471.07,226.57 496.83,208.26 389.52,91.12 357.13,127.95 "
       fill="#6c63ff"
       id="polygon4021"
       transform="translate(94.899438,449.79389)"
       style="fill:#064e3b;fill-opacity:1" /><polygon
       points="433.3,371.39 491.55,311.56 514.38,327.31 459.24,393.91 "
       fill="#ffb6b6"
       id="polygon4023"
       transform="translate(94.899438,449.79389)" /><path
       d="m 566.97944,825.45389 v 0 l 10.88,27.98 c 0,0 21.11,42.04 0.45,31.13 -20.66,-10.91 -70.05,-48.48 -65.06,-58.44 4.99,-9.96 22.74,-26.42 22.74,-26.42 l 30.99,25.74 v 0 z"
       fill="#2f2e41"
       id="path4025"
       style="fill:#111827;fill-opacity:1" /><path
       d="m 460.82944,695.94389 c 0,0 -20.83,49.22 13.25,49.22 34.08,0 114.07,-2.84 114.07,-2.84 l -23.67,41.65 27.93,14.2 c 0,0 58.69,-55.38 54.9,-80.46 -3.79,-25.08 -109.78,-41.93 -109.78,-41.93 l -21.41,5.63 z"
       fill="#2f2e41"
       id="path4027"
       style="fill:#111827;fill-opacity:1" /><path
       d="m 458.00944,460.91389 c 0,0 36.74,1.95 40.03,16.05 3.29,14.09 -4.24,28.48 7.58,28.33 11.82,-0.15 15.95,5.11 15.95,5.11 0,0 -12.06,34.15 -31,36.11 -18.94,1.96 -32.56,-85.6 -32.56,-85.6 z"
       fill="#2f2e41"
       id="path4029"
       style="fill:#111827;fill-opacity:1" /><polygon
       points="347.84,67.82 345.52,95.97 387.75,105.3 388.89,73.64 "
       fill="#ffb6b6"
       id="polygon4031"
       transform="translate(94.899438,449.79389)" /><path
       d="m 493.79944,492.32389 c 5.73,17.12 -3.51,35.65 -20.63,41.38 -17.12,5.73 -35.65,-3.51 -41.38,-20.63 -5.73,-17.12 3.51,-35.65 20.63,-41.38 17.12,-5.73 35.65,3.51 41.38,20.63 z"
       fill="#ffb6b6"
       id="path4033" /><path
       d="m 488.20944,542.69389 -37.58,-7.83 -7,62.78 c -1.79,6.96 1.67,33.4 3.51,40.34 l 11.32,76.15 79.07,-38.36 -18.01,-44.62 3.91,-32.1 -35.23,-56.36 z"
       fill="#6c63ff"
       id="path4035"
       style="fill:#064e3b;fill-opacity:1" /><path
       id="uuid-2ae02034-8b61-43cb-9dde-8a75b258f379-1043"
       d="m 506.06944,626.89389 c -4.8,1 -9.28,3.13 -13.09,6.22 l -50.58,7.94 4.48,23.96 50.82,-10.64 c 4.75,1.18 9.72,1.21 14.48,0.09 11.97,-2.66 20.29,-10.99 18.6,-18.6 -1.69,-7.61 -12.76,-11.63 -24.72,-8.97 v 0 z"
       fill="#ffb6b6" /><path
       d="m 476.17944,582.29389 -33.93,-29.03 -50.06,87.79 c -1.48,20.46 17.19,36.56 37.21,32.07 l 44.9,-10.95 -8.57,-36.13 -25.24,-0.93 35.71,-42.83 h -0.02 z"
       fill="#6c63ff"
       id="path4038"
       style="fill:#064e3b;fill-opacity:1" /><path
       d="m 437.63944,467.25389 c 0,0 -40.24,11.09 -31.11,27.03 9.13,15.94 19.85,20.42 18.52,29.42 -1.33,9 9.26,43.91 25.37,38.52 16.11,-5.39 40.16,-15.71 40.16,-15.71 0,0 -33.96,-28.53 -27.98,-33.37 5.98,-4.84 -12.89,-39 -12.89,-39 0,0 19.15,-9.26 29.3,-6.48 10.15,2.78 15.81,1.84 15.81,1.84 0,0 -27.65,-25.89 -39.94,-15.6 -12.29,10.29 -17.23,13.36 -17.23,13.36 v 0 c 0,0 0,0 0,-0.01 z"
       fill="#2f2e41"
       id="path4040"
       style="fill:#111827;fill-opacity:1" /><path
       style="fill:none;fill-opacity:1;stroke:#111827;stroke-width:11.9987;stroke-linecap:round;stroke-linejoin:round;stroke-dasharray:none;stroke-opacity:1"
       d="m 609.80576,1133.117 c 0,0 78.63274,-123.267 304.76875,-121.8429 l -59.96846,31.7145"
       id="path5507"
       sodipodi:nodetypes="ccc" /><path
       style="fill:none;fill-opacity:1;stroke:#111827;stroke-width:11.9987;stroke-linecap:round;stroke-linejoin:round;stroke-dasharray:none;stroke-opacity:1"
       d="m 851.9203,982.31749 62.12451,28.32781"
       id="path5563"
       sodipodi:nodetypes="cc" /><circle
       style="fill:#064e3b;fill-opacity:1;stroke:none;stroke-width:9.37911;stroke-linecap:round;stroke-linejoin:round;stroke-dasharray:none;stroke-opacity:1"
       id="path5617"
       cx="992.09399"
       cy="1007.4061"
       r="55.688049" /><path
       style="fill:none;fill-opacity:0.287469;stroke:#ffffff;stroke-width:11.1417;stroke-linecap:round;stroke-linejoin:round;stroke-dasharray:none;stroke-opacity:1"
       d="m 962.653,1008.1189 19.11548,18.1175 38.30782,-37.07945"
       id="path6413" /><g
       id="g7212"
       transform="matrix(-1,0,0,1,987.02647,-187.60529)"><path
         style="fill:none;fill-opacity:1;stroke:#111827;stroke-width:11.9987;stroke-linecap:round;stroke-linejoin:round;stroke-dasharray:none;stroke-opacity:1"
         d="m 659.68367,1335.4885 c 0,0 78.63274,-123.267 304.76875,-121.8429 l -59.96846,31.7145"
         id="path5507-4"
         sodipodi:nodetypes="ccc" /><path
         style="fill:none;fill-opacity:1;stroke:#111827;stroke-width:11.9987;stroke-linecap:round;stroke-linejoin:round;stroke-dasharray:none;stroke-opacity:1"
         d="m 901.79821,1184.689 62.12451,28.3278"
         id="path5563-0"
         sodipodi:nodetypes="cc" /><circle
         style="fill:#9f1239;fill-opacity:1;stroke:none;stroke-width:9.37911;stroke-linecap:round;stroke-linejoin:round;stroke-dasharray:none;stroke-opacity:1"
         id="path5617-1"
         cx="1041.9719"
         cy="1209.7776"
         r="55.688049" /><path
         style="fill:#9f1239;fill-opacity:0.383292;stroke:#ffffff;stroke-width:11.1417;stroke-linecap:round;stroke-linejoin:round;stroke-dasharray:none;stroke-opacity:1"
         d="m 1022.2914,1189.9358 37.8902,37.9987"
         id="path9446" /><path
         style="fill:#9f1239;fill-opacity:0.383292;stroke:#ffffff;stroke-width:11.1417;stroke-linecap:round;stroke-linejoin:round;stroke-dasharray:none;stroke-opacity:1"
         d="m 1060.3987,1189.8271 -38.1073,38.1074"
         id="path9448"
         sodipodi:nodetypes="cc" /></g></g></svg>
